<?xml version="1.0" encoding="utf-8"?>
<!-- Designed by Vexels.com - 2016 All Rights Reserved - https://vexels.com/terms-and-conditions/  -->

<svg version="1.1" id="Layer_1" xmlns="http://www.w3.org/2000/svg" xmlns:xlink="http://www.w3.org/1999/xlink" x="0px" y="0px"
	 width="1200px" height="1200px" viewBox="0 0 1200 1200" enable-background="new 0 0 1200 1200" xml:space="preserve">
<g>
	<path fill="#FFFFFF" d="M1139.364,610.653c0,297.901-241.456,539.347-539.366,539.347c-297.886,0-539.362-241.446-539.362-539.347
		c0-297.9,241.476-539.376,539.362-539.376C897.908,71.278,1139.364,312.753,1139.364,610.653z"/>
	<path fill="#EA5B0C" d="M1139.364,589.376c0,297.901-241.456,539.357-539.366,539.357c-297.886,0-539.362-241.456-539.362-539.357
		S302.112,50,599.998,50C897.908,50,1139.364,291.475,1139.364,589.376z"/>
	<g>
		<path fill="#FFFFFF" d="M938.488,626.319c-5.3-12.991-19.336-20.663-41.863-21.464c-22.507-0.791-25.417-7.945-42.38-10.853
			c-16.944-2.908-24.362,12.182-24.362,12.182c-6.345,11.117,9.018,30.189,9.018,30.189c-6.89,5.299-10.337,10.863-23.844,19.863
			c-13.499,9.008-17.481,25.426-17.481,25.426s-3.709,1.054-5.564-5.554c-1.854-6.627-1.307-2.118-6.89-5.563
			c-5.544-3.445-21.181-20.409-26.217-24.362c-5.016-3.973-18.271-17.227-20.926-21.727c-2.636-4.51-9.527-7.672-13.236-12.172
			c-3.709-4.519-0.263-8.482-1.59-14.046c-1.327-5.563-14.027-5.827-18.272-7.945c-4.246-2.118-8.482,1.327-4.246-10.853
			c1.601-4.578,2.255-10.59,1.923-16.671c1.23,3.103,2.763,7.32,4.442,13.489c3.181,11.654,48.197,29.926,48.197,29.926
			c4.51,2.908,10.6,0.263,10.6,0.263c1.854,0.528,5.836-1.591,5.836-1.591c4.491-2.909-0.273-6.344-0.273-6.344
			c1.855,0.791,5.29-2.392,5.29-2.392c3.182-4.226-5.017-10.327-5.017-10.327c2.363-4.5-10.599-20.663-14.308-23.845
			c-3.709-3.172-3.973-7.145-6.628-12.444c-2.645-5.281-19.863-14.573-21.717-16.155c-1.855-1.581,0.527-3.445-1.327-6.354
			c-1.855-2.908-2.382-3.709-2.909-9.546c-0.527-5.817-2.381-15.08-2.918-24.362c-0.518-9.262-10.328-33.108-11.645-39.451
			c-1.327-6.355-10.337-23.572-14.3-29.136c-3.982-5.573-10.073-23.845-10.073-23.845c-0.791-3.983-3.445-13.235-6.618-17.218
			c-3.172-3.972-8.999-11.908-10.863-16.417c-1.845-4.5-3.181-13.245-5.036-18.008c-1.845-4.764-7.144-16.154-10.58-18.809
			c-3.455-2.645-23.318-15.88-23.318-15.88c-13.245-17.745-25.954-11.4-25.954-11.4c-12.181-15.09-22.244-11.371-22.244-11.371
			c-7.681-5.31-4.773-16.164-4.773-16.164c9.009-15.109-0.781-32.307-0.781-32.307c0.254-7.965-5.573-20.937-5.573-20.937
			c2.118-15.627-18.009-25.426-18.009-25.426c7.682-0.264,15.617,4.51,15.617,4.51c-4.236-7.164-22.234-8.209-22.234-8.209
			c1.327-3.192,7.672-2.656,7.672-2.656c-5.544-3.718-11.654,2.656-11.654,2.656c-2.109-6.628-7.946-4.773-7.946-4.773
			c3.973,0.264,5.837,3.973,5.837,3.973c-24.899-6.891-45.562,12.981-45.562,12.981c-29.389,26.744-7.203,58.875-7.203,58.875
			c-2.147,8.843,4.276,3.075,3.358,11.127c-0.948,8.033,5.348,18.76,7.359,20.37c2.02,1.61,8.316,11.244,8.316,11.244
			c0.391,2.421,6.715,9.8,8.453,10.736c1.737,0.938,5.349,8.317,5.349,8.317c-16.476,4.918-12.65,39.559-12.65,39.559
			c-7.417,2.645-2.645,17.481-11.126,18.008c-8.473,0.537-12.708,7.955-19.072,15.373c-6.345,7.398-19.072,18.009-28.599,23.308
			c-9.545,5.29-20.125,8.463-31.78,12.172c-11.663,3.709-32.844,0.537-32.844,0.537c-14.826-1.063-13.245,21.19-13.245,21.19
			c-3.181,0-6.354,4.764-6.354,4.764c-6.355,12.191,13.772,4.772,13.772,4.772c-0.527,5.281,10.073,3.162,10.073,3.162
			c1.054,3.192,8.999,1.591,8.999,1.591l5.817,1.073c8.482-0.546,6.891-8.482,6.891-8.482c12.181,1.064,16.417-1.591,16.417-1.591
			c6.364-6.88,36.026-11.654,36.026-11.654c12.708,1.064,33.898-3.172,33.898-3.172c-3.172,5.827,1.581,22.234,2.128,29.136
			c0.527,6.89,5.817,20.125,5.29,29.661c-0.528,9.527,4.763,6.881,4.763,18.009s2.655,33.372,2.655,44.499
			c0,11.117,5.29,18.008,1.581,25.952c-3.708,7.946-2.108,24.362-5.29,32.835c-3.181,8.482,3.709,11.127,3.709,11.127
			c-2.127,2.655-9.018,16.944-24.371,39.735c-15.354,22.761-14.826,41.315-16.954,47.66c-2.109,6.364-3.162,13.782-8.473,18.545
			c-5.29,4.772-1.581,21.19,0,28.598c1.601,7.418,5.837,18.028,5.837,18.028c-7.945,10.59-4.773,77.323-4.773,88.45
			c0,11.127,4.246,14.836-7.418,18.019c-11.654,3.162-24.372-6.891-24.372-6.891c-29.126-21.19-40.252-10.063-40.252-10.063
			c-22.235,24.889,17.491,59.852,38.144,65.669c20.653,5.837,28.598,15.363,49.788,15.91c21.19,0.527,20.663-14.31,20.663-30.726
			c0-16.427,16.417-49.525,16.417-49.525c8.209-13.255,10.327-51.653,12.708-54.298c2.391-2.665,2.391-11.654,2.917-21.454
			c0.518-9.81-2.118-8.735-3.972-12.454c-1.855-3.699-0.801-13.245-0.537-15.09c0.273-1.864,7.681-8.482,7.681-8.482
			c4.237,1.864,31.254,4.5,42.908,2.128c11.654-2.392,12.191-12.981,14.309-21.99c2.119-9.009,11.381-20.663,17.999-32.307
			c6.617-11.654,19.072-21.99,19.072-21.99s-4.49-9.263,1.073,0c5.544,9.262,23.836,8.745,23.836,8.745
			c8.199,3.972,75.478,19.589,75.478,19.589c0.791,2.138,6.88,3.983,6.88,3.983c10.074,10.599,31.78,18.798,41.844,30.189
			c10.083,11.39,23.572,11.39,26.49,9.272c2.909-2.118,3.709,0,17.481-2.382c13.782-2.381,18.281-18.808,21.19-27.281
			c2.918-8.482,15.099-25.69,17.208-30.716c2.118-5.046,14.836-17.745,14.582-32.581c-0.274-14.835,4.236-12.454,4.236-12.454
			c0,3.192,6.618-2.108,6.618-2.108c2.382,6.081,9.8,2.108,9.8,2.108c5.29-14.299,18.808-6.344,31.506-6.618
			C938.742,654.644,943.768,639.291,938.488,626.319z M691.371,534.687c-0.156,0.927-0.205,1.865-0.166,2.802
			c-10.59-8.55-31.878-46.001-31.878-46.001c0.995-3.192,1.972-38.252,2.099-42.898c0.322,2.518,6.1,5.309,6.1,5.309
			c-0.517,4.754,8.745,29.926,11.928,36.016C682.636,496.006,692.962,525.142,691.371,534.687z"/>
		<path fill="#FFFFFF" d="M658.263,845.882c-32.766,0-59.315,26.558-59.315,59.314c0,32.776,26.549,59.325,59.315,59.325
			c32.766,0,59.334-26.549,59.334-59.325C717.597,872.44,691.029,845.882,658.263,845.882z"/>
	</g>
</g>
</svg>
